<?xml version="1.0" encoding="UTF-8"?><svg xmlns="http://www.w3.org/2000/svg" viewBox="0 0 14.4 14.4"><defs><style>.f{fill:#fffffe;}.g{fill:#ff8ba7;}</style></defs><g id="a"/><g id="b"/><g id="c"/><g id="d"><g><circle class="g" cx="7.2" cy="7.2" r="4.57"/><rect class="f" x=".85" y="5.26" width="12.7" height="3.87" rx=".54" ry=".54"/><g><path class="g" d="M4.61,8.01s-.06,.04-.09,.04-.07-.01-.09-.04c-.02-.02-.04-.06-.04-.09v-1.44s.01-.07,.04-.09,.06-.04,.09-.04,.07,.01,.09,.04c.02,.02,.04,.06,.04,.09v.54s0,.02,.02,.02h.68s.02,0,.02-.02v-.54s.01-.07,.04-.09c.02-.02,.06-.04,.09-.04s.07,.01,.09,.04c.02,.02,.04,.06,.04,.09v1.44s-.01,.07-.04,.09c-.02,.02-.06,.04-.09,.04s-.07-.01-.09-.04c-.02-.02-.04-.06-.04-.09v-.66s0-.02-.02-.02h-.68s-.02,0-.02,.02v.66s-.01,.07-.04,.09Z"/><path class="g" d="M6.89,7.9c-.1,.11-.24,.16-.42,.16s-.32-.05-.42-.16c-.1-.11-.15-.26-.15-.46s.05-.35,.15-.46c.1-.11,.24-.16,.42-.16s.32,.05,.42,.16c.1,.11,.15,.26,.15,.46s-.05,.35-.15,.46Zm-.1-.46c0-.29-.11-.44-.32-.44s-.32,.15-.32,.44,.11,.44,.32,.44,.32-.15,.32-.44Z"/><path class="g" d="M7.5,8.01s-.05,.03-.09,.03-.06-.01-.09-.03-.03-.05-.03-.09v-.97s.01-.06,.03-.08c.02-.02,.05-.03,.08-.03s.06,.01,.08,.03c.02,.02,.04,.05,.04,.08v.02h0c.09-.11,.19-.16,.3-.16,.07,0,.12,.01,.17,.04s.08,.08,.11,.14h0c.09-.12,.2-.18,.33-.18s.22,.03,.27,.1c.06,.07,.08,.19,.08,.36v.65s-.01,.06-.04,.08c-.02,.02-.05,.04-.08,.04s-.06-.01-.08-.04c-.02-.02-.03-.05-.03-.08v-.58c0-.14-.01-.23-.04-.28-.03-.05-.08-.07-.15-.07-.04,0-.09,.02-.14,.07-.05,.05-.07,.09-.07,.14v.72s-.01,.06-.03,.08c-.02,.02-.05,.04-.08,.04s-.06-.01-.08-.04c-.02-.02-.04-.05-.04-.08v-.58c0-.14-.01-.23-.04-.28-.03-.05-.08-.07-.15-.07-.04,0-.09,.02-.14,.07s-.07,.09-.07,.14v.72s-.01,.06-.04,.09Z"/><path class="g" d="M9.65,8.07c-.19,0-.34-.05-.45-.16-.1-.11-.16-.26-.16-.47s.05-.36,.14-.47c.09-.11,.23-.16,.41-.16,.32,0,.49,.19,.5,.57,0,.04-.01,.07-.04,.09-.03,.02-.06,.04-.1,.04h-.64s-.02,0-.02,.02c.02,.24,.15,.36,.38,.36,.08,0,.16-.01,.24-.04,.02,0,.04,0,.07,0,.02,.01,.03,.03,.03,.06,0,.03,0,.06-.03,.08-.02,.02-.04,.04-.07,.05-.09,.02-.17,.03-.26,.03Zm-.06-1.07c-.18,0-.28,.1-.3,.31,0,.01,0,.02,.02,.02h.52s.02,0,.02-.02c0-.21-.1-.31-.26-.31Z"/></g><g><path class="f" d="M3.67,9.76s-.05-.1-.04-.16c.01-.06,.05-.12,.11-.17,.06-.05,.12-.08,.18-.08,.06,0,.11,.02,.15,.07,.04,.04,.05,.09,.05,.15h0l.17-.14s.02-.01,.04-.01,.03,0,.03,.02c0,.01,.01,.02,.01,.04,0,.01,0,.03-.02,.03l-.48,.41s-.02,.01-.03,.01c-.01,0-.02,0-.03-.02,0,0-.01-.02-.01-.03,0-.01,0-.02,.02-.03h0s-.07-.02-.09-.03c-.02-.01-.04-.03-.06-.05Zm.36-.27c-.05-.06-.13-.06-.22,.02-.05,.04-.08,.08-.08,.12,0,.04,0,.07,.03,.1,.02,.03,.05,.04,.08,.05,.03,0,.06,0,.08-.02l.11-.09s.03-.05,.03-.08c0-.03,0-.06-.03-.09Z"/><path class="f" d="M4.3,10.3c-.06,0-.12-.02-.18-.07-.06-.05-.08-.11-.08-.17,0-.06,.03-.12,.08-.19,.06-.06,.11-.1,.18-.1,.06,0,.12,.02,.18,.07,.06,.05,.08,.11,.08,.17,0,.06-.03,.12-.08,.19-.06,.06-.11,.1-.18,.1Zm.1-.17c.08-.09,.09-.17,.02-.23-.07-.06-.14-.04-.22,.05-.08,.09-.09,.17-.02,.23,.07,.06,.14,.04,.22-.05Z"/><path class="f" d="M4.79,10.65c-.06,.01-.12,0-.18-.04-.06-.04-.1-.09-.11-.15,0-.06,0-.13,.06-.2,.05-.07,.1-.11,.16-.12,.06-.01,.12,0,.18,.04s.1,.09,.11,.15c0,.06,0,.13-.06,.2-.05,.07-.1,.11-.16,.12Zm.07-.18c.07-.1,.07-.18,0-.23-.07-.05-.15-.02-.21,.08-.07,.1-.07,.18,0,.23,.07,.05,.15,.02,.21-.08Z"/><path class="f" d="M5.11,10.91c-.05-.03-.09-.07-.1-.13-.01-.06,0-.12,.03-.2,.04-.07,.08-.12,.14-.15,.05-.02,.11-.02,.16,0,.05,.03,.09,.07,.1,.12h0l.1-.2s.02-.02,.03-.03,.03,0,.04,0c.01,0,.02,.02,.03,.03,0,.01,0,.03,0,.04l-.28,.56s-.01,.02-.03,.02c-.01,0-.02,0-.04,0-.01,0-.02-.01-.02-.03,0-.01,0-.02,0-.04h0s-.06,0-.09,0c-.03,0-.05,0-.08-.02Zm.22-.39c-.08-.04-.14,0-.19,.11-.03,.06-.04,.1-.03,.14,0,.04,.03,.06,.06,.08,.03,.02,.06,.02,.09,0,.03,0,.05-.03,.07-.05l.06-.13s.01-.05,0-.09-.03-.05-.06-.07Z"/><path class="f" d="M5.64,11.11s-.03,0-.04,0c-.01,0-.02-.01-.03-.03,0-.01,0-.03,0-.04l.21-.58s.01-.02,.03-.03c.01,0,.03,0,.04,0s.02,.01,.03,.03c0,.01,0,.03,0,.04l-.21,.58s-.01,.02-.03,.03Z"/><path class="f" d="M6.06,11.26c-.08-.02-.13-.06-.16-.11-.03-.05-.04-.12-.01-.21,.02-.08,.06-.14,.11-.17,.05-.03,.11-.04,.18-.02,.13,.03,.18,.13,.14,.28,0,.02-.01,.03-.03,.03-.01,0-.03,0-.04,0l-.26-.07s0,0,0,0c-.02,.1,.02,.16,.12,.18,.03,0,.07,.01,.1,0,.01,0,.02,0,.03,.01,0,0,0,.02,0,.03,0,.01,0,.02-.02,.03,0,0-.02,.01-.03,.01-.04,0-.07,0-.11-.02Zm.09-.44c-.07-.02-.12,.01-.15,.1,0,0,0,0,0,.01l.21,.06s0,0,0,0c.02-.09,0-.14-.07-.15Z"/><path class="f" d="M6.59,11.36c-.06,0-.1-.04-.14-.09-.03-.05-.04-.12-.03-.2,.01-.08,.04-.14,.08-.18,.04-.04,.09-.06,.16-.05,.06,0,.1,.03,.14,.08h0l.03-.22s0-.03,.02-.03c.01,0,.02-.01,.04-.01,.01,0,.03,0,.03,.02,0,.01,.01,.02,.01,.04l-.08,.62s0,.02-.02,.03c-.01,0-.02,.01-.03,0-.01,0-.02,0-.03-.02,0-.01-.01-.02-.01-.04h0v-.02h0s-.05,.04-.08,.05c-.02,0-.05,0-.08,0Zm.08-.44c-.08-.01-.13,.05-.15,.17,0,.06,0,.11,.02,.14,.02,.03,.05,.05,.09,.06,.03,0,.06,0,.09-.02,.03-.02,.04-.04,.05-.07l.02-.14s0-.06-.03-.08c-.02-.03-.05-.04-.08-.04Z"/><path class="f" d="M7.2,11.4c-.06,0-.1-.01-.13-.05-.03-.03-.04-.08-.04-.16v-.26s0-.03,.01-.04c0,0,.02-.01,.03-.02,.01,0,.03,0,.04,.01s.02,.02,.02,.03v.25c0,.05,.01,.09,.03,.11,.01,.02,.04,.03,.07,.03,.03,0,.06-.01,.09-.04,.03-.03,.04-.06,.04-.09v-.26s0-.03,.01-.04c0,0,.02-.01,.04-.02,.01,0,.03,0,.04,.01,0,0,.01,.02,.02,.04v.41s0,.02,0,.03c0,0-.02,.01-.03,.01-.01,0-.02,0-.03-.01,0,0-.02-.02-.02-.03h0v-.02h0s-.1,.07-.16,.08Z"/><path class="f" d="M7.75,11.35s-.02,.02-.03,.02c-.01,0-.03,0-.04,0-.01,0-.02-.02-.02-.03l-.07-.4s0-.03,0-.04c0-.01,.02-.02,.03-.02,.01,0,.03,0,.04,0,.01,0,.02,.02,.02,.03h0s.07-.07,.11-.08c.03,0,.05,0,.07,0,.02,0,.04,.03,.06,.05h0c.03-.06,.07-.09,.12-.1,.05,0,.09,0,.12,.02,.03,.02,.05,.07,.06,.14l.05,.27s0,.03,0,.04c0,.01-.02,.02-.03,.02-.01,0-.03,0-.04,0-.01,0-.02-.02-.02-.03l-.04-.24c-.01-.06-.02-.1-.04-.11-.01-.02-.04-.02-.07-.02-.02,0-.04,.02-.05,.04-.02,.02-.02,.04-.02,.06l.05,.29s0,.03,0,.04-.02,.02-.03,.02c-.01,0-.03,0-.04,0-.01,0-.02-.02-.02-.03l-.04-.24c-.01-.06-.02-.1-.04-.11-.01-.02-.04-.02-.07-.02-.02,0-.04,.02-.05,.04s-.02,.04-.02,.06l.05,.29s0,.03,0,.04Z"/><path class="f" d="M8.65,11.16c-.06,.02-.11,.01-.16-.02-.05-.03-.09-.09-.12-.16-.03-.08-.03-.14-.01-.2,.02-.06,.06-.09,.12-.11,.05-.02,.11-.02,.16,0h0l-.07-.21s0-.03,0-.04c0-.01,.02-.02,.03-.03,.01,0,.03,0,.04,0,.01,0,.02,.02,.03,.03l.21,.59s0,.02,0,.04c0,.01-.01,.02-.03,.02-.01,0-.02,0-.04,0-.01,0-.02-.01-.03-.03h0s-.03,.05-.05,.06c-.02,.02-.04,.03-.07,.04Zm-.12-.43c-.08,.03-.1,.1-.06,.22,.02,.06,.05,.1,.08,.12,.03,.02,.07,.03,.1,.01,.03-.01,.06-.03,.07-.06,.02-.03,.02-.06,0-.09l-.05-.14s-.03-.05-.06-.06c-.03-.01-.06-.01-.09,0Z"/><path class="f" d="M9.21,10.92c-.05,.03-.09,.03-.13,.01-.04-.02-.07-.06-.11-.12l-.12-.23s0-.02,0-.04c0-.01,.01-.02,.02-.03s.02,0,.04,0c.01,0,.02,.01,.03,.02l.11,.22s.05,.08,.07,.09c.02,.01,.05,0,.08,0,.03-.01,.05-.04,.06-.07,.01-.04,.01-.07,0-.09l-.12-.23s0-.03,0-.04c0-.01,.01-.02,.03-.03,.01,0,.03,0,.04,0,.01,0,.02,.01,.03,.03l.18,.36s0,.02,0,.04c0,.01-.01,.02-.02,.03-.01,0-.02,0-.04,0-.01,0-.02-.01-.03-.02h0c-.02,.05-.05,.1-.11,.12Z"/><path class="f" d="M9.68,10.63s0,.02-.02,.03c-.01,0-.02,.01-.04,0-.01,0-.02,0-.03-.02l-.24-.33s-.01-.02,0-.04c0-.01,0-.02,.02-.03,.01,0,.02-.01,.04,0,.01,0,.02,0,.03,.02h0c0-.05,.03-.1,.06-.12,.02-.02,.04-.03,.07-.03,.02,0,.04,0,.07,.02h0c0-.07,.02-.11,.06-.14,.04-.03,.08-.04,.12-.03,.04,0,.07,.04,.12,.1l.16,.22s.01,.02,0,.04c0,.01,0,.02-.02,.03-.01,0-.02,.01-.04,0-.01,0-.02,0-.03-.02l-.14-.19s-.06-.08-.08-.08c-.02,0-.04,0-.07,.01-.02,.01-.02,.03-.03,.06,0,.03,0,.05,.01,.06l.18,.24s.01,.02,0,.04c0,.01,0,.02-.02,.03-.01,0-.02,.01-.04,0-.01,0-.02,0-.03-.02l-.14-.19s-.06-.08-.08-.08c-.02,0-.04,0-.07,.01-.02,.01-.02,.03-.03,.06,0,.03,0,.05,.01,.06l.18,.24s.01,.02,0,.04Z"/><path class="f" d="M9.95,9.81s-.02,.01-.03,0c-.01,0-.02,0-.03-.02l-.07-.14s0-.03,0-.05c0-.02,0-.03,.02-.04l.02-.02s.02-.01,.03,0c.01,0,.02,.01,.03,.02l.06,.16s0,.03,0,.04c0,.01-.01,.03-.02,.04Z"/><path class="f" d="M10.44,9.71c-.06,.04-.1,.06-.14,.06-.04,0-.07,0-.1-.03-.03-.03-.05-.07-.05-.11,0-.04,.02-.09,.07-.13,.03-.03,.06-.06,.09-.08,0,0,.02,0,.03,0,.01,0,.02,0,.03,.01,0,0,.01,.02,0,.03,0,.01,0,.02-.02,.02-.04,.02-.06,.05-.09,.08-.04,.05-.05,.09-.02,.11,.01,.01,.03,.02,.05,.02,.02,0,.04-.01,.07-.03,.06-.04,.11-.07,.15-.07,.04,0,.07,.01,.11,.04,.03,.03,.05,.06,.04,.11,0,.04-.03,.09-.07,.14-.03,.03-.06,.06-.1,.08-.01,0-.02,0-.03,0-.01,0-.02,0-.03-.01,0,0-.01-.01,0-.02,0,0,0-.02,.01-.02,.04-.02,.07-.05,.09-.08,.05-.05,.05-.09,.02-.12-.02-.01-.03-.02-.05-.02-.02,0-.04,.01-.08,.03Z"/></g><g><path class="f" d="M5.03,4.09l-.26-.32s-.01-.02,0-.04,.01-.02,.02-.03c.01,0,.03,0,.05,0s.03,.01,.04,.03l.22,.3h0l-.09-.36s0-.03,0-.05c0-.01,.02-.03,.03-.03h.02s.03-.02,.05-.02c.02,0,.03,.01,.04,.03l.22,.3h0l-.09-.36s0-.03,0-.04c0-.01,.02-.02,.03-.03,.01,0,.02,0,.04,0,.01,0,.02,.02,.02,.03l.08,.41s0,.03,0,.05c0,.01-.02,.03-.03,.03h-.02s-.03,.02-.04,.01c-.02,0-.03-.01-.04-.02l-.21-.29h0l.09,.35s0,.03,0,.04-.02,.03-.03,.03h-.02s-.03,.02-.05,.01c-.02,0-.03-.01-.04-.02Z"/><path class="f" d="M5.84,3.82c-.08,.02-.14,.02-.2,0-.05-.03-.1-.08-.12-.17-.03-.08-.03-.15,0-.2,.02-.05,.07-.09,.14-.11,.13-.04,.22,.01,.27,.16,0,.01,0,.03,0,.04,0,.01-.02,.02-.03,.03l-.26,.08s0,0,0,0c.04,.09,.1,.12,.2,.09,.03-.01,.06-.03,.09-.05,0,0,.02,0,.03,0,0,0,.02,0,.02,.02,0,.01,0,.02,0,.03,0,.01-.01,.02-.02,.03-.03,.02-.06,.03-.1,.04Zm-.16-.42c-.07,.02-.1,.08-.08,.16,0,0,0,0,.01,0l.21-.07s0,0,0-.01c-.03-.08-.08-.11-.14-.09Z"/><path class="f" d="M6.23,3.69s-.02,.02-.03,.02c-.01,0-.03,0-.04,0-.01,0-.02-.02-.02-.03l-.14-.61s0-.03,0-.04c0-.01,.02-.02,.03-.02,.01,0,.03,0,.04,0,.01,0,.02,.02,.02,.03l.14,.61s0,.03,0,.04Z"/><path class="f" d="M6.61,3.65c-.08,.01-.14,0-.19-.04-.05-.04-.08-.1-.09-.18-.01-.08,0-.15,.03-.2,.03-.05,.09-.08,.16-.09,.03,0,.07,0,.1,0,.01,0,.02,0,.03,.01,0,0,.01,.02,.02,.03,0,.01,0,.02,0,.03s-.02,.01-.03,0c-.03,0-.06,0-.09,0-.04,0-.08,.03-.09,.06-.02,.03-.02,.08-.01,.14,0,.06,.03,.11,.05,.13,.03,.02,.06,.03,.11,.03,.03,0,.06-.01,.08-.02,0,0,.02,0,.03,0,0,0,.01,.01,.02,.02,0,.01,0,.02,0,.04,0,.01-.02,.02-.03,.02-.03,0-.06,.02-.09,.02Z"/><path class="f" d="M7.24,3.54s-.1,.07-.17,.07c-.07,0-.13-.02-.18-.06-.04-.04-.07-.11-.07-.19,0-.08,.02-.15,.06-.2,.04-.05,.1-.07,.17-.07,.07,0,.13,.02,.18,.06,.04,.04,.07,.11,.07,.19,0,.08-.02,.15-.06,.2Zm-.05-.19c0-.12-.05-.18-.14-.18s-.13,.07-.13,.19c0,.12,.05,.18,.14,.18,.09,0,.13-.07,.13-.19Z"/><path class="f" d="M7.47,3.59s-.02,.01-.04,.01c-.01,0-.03,0-.03-.02,0-.01-.01-.02-.01-.04l.04-.4s0-.02,.02-.03c.01,0,.02-.01,.04-.01,.01,0,.02,0,.03,.02,0,.01,.01,.02,.01,.04h0s.09-.05,.13-.04c.03,0,.05,.01,.07,.02,.02,.01,.03,.03,.04,.06h0s.09-.07,.14-.06c.05,0,.09,.02,.11,.06,.02,.03,.03,.08,.02,.15l-.03,.27s0,.02-.02,.03c-.01,0-.02,.01-.04,.01-.01,0-.02,0-.03-.02,0-.01-.01-.02-.01-.04l.03-.24c0-.06,0-.1,0-.12,0-.02-.03-.03-.06-.04-.02,0-.04,0-.06,.02-.02,.02-.03,.04-.04,.05l-.03,.3s0,.02-.02,.03c-.01,0-.02,.01-.04,.01-.01,0-.02,0-.03-.02,0-.01-.01-.02-.01-.04l.03-.24c0-.06,0-.1,0-.12,0-.02-.03-.03-.06-.04-.02,0-.04,0-.06,.02-.02,.02-.03,.04-.04,.05l-.03,.3s0,.03-.02,.03Z"/><path class="f" d="M8.33,3.76c-.08-.02-.13-.06-.17-.11-.03-.05-.04-.12-.02-.21,.02-.08,.06-.14,.1-.18,.05-.03,.11-.04,.18-.02,.13,.03,.18,.13,.15,.28,0,.02-.01,.03-.03,.03-.01,0-.03,0-.04,0l-.26-.06s0,0,0,0c-.02,.1,.02,.16,.12,.18,.03,0,.07,.01,.1,0,.01,0,.02,0,.03,.01,0,0,0,.02,0,.03,0,.01,0,.02-.02,.03,0,0-.02,.01-.03,.01-.04,0-.07,0-.11-.01Zm.08-.44c-.07-.02-.12,.01-.15,.1,0,0,0,0,0,.01l.21,.05s0,0,0,0c.02-.09,0-.14-.07-.15Z"/><path class="f" d="M9.02,3.54s-.02-.01-.02-.02,0-.02,0-.03c0,0,.01-.02,.02-.02,0,0,.02,0,.03,0l.05,.02s0,0,.01,0l.05-.11s.01-.02,.03-.03c.01,0,.03,0,.04,0,.01,0,.02,.01,.03,.03,0,.01,0,.03,0,.04l-.05,.11s0,0,0,.01l.12,.05s.02,.01,.02,.02c0,.01,0,.02,0,.03,0,0-.01,.02-.02,.02,0,0-.02,0-.03,0l-.12-.05s0,0-.01,0l-.09,.21s-.02,.07-.02,.09c0,.02,.02,.03,.05,.04,.01,0,.03,.01,.04,.01,0,0,.02,0,.02,.02,0,0,0,.02,0,.03,0,.01-.01,.02-.02,.02-.01,0-.02,0-.03,0-.03,0-.05-.02-.06-.02-.05-.02-.09-.05-.1-.08-.01-.03,0-.08,.02-.14l.09-.21s0,0,0-.01l-.05-.02Z"/><path class="f" d="M9.63,4.23c-.06,.02-.12,.01-.19-.03-.06-.04-.1-.09-.12-.15-.01-.06,0-.13,.04-.2,.04-.07,.09-.12,.15-.14,.06-.02,.12-.01,.19,.03,.06,.04,.1,.09,.12,.15,.01,.06,0,.13-.04,.2s-.09,.12-.15,.14Zm.06-.19c.06-.11,.05-.18-.03-.23s-.15-.01-.21,.09c-.06,.11-.05,.18,.03,.23,.08,.04,.15,.01,.21-.09Z"/></g></g></g><g id="e"/></svg>