<?xml version="1.0" encoding="UTF-8"?><svg id="Layer_2" xmlns="http://www.w3.org/2000/svg" viewBox="0 0 745.77 535.54"><defs><style>.cls-1{fill:none;}.cls-2{fill:#ec7dae;}.cls-3{fill:#fff;}</style></defs><g id="Layer_2-2"><rect class="cls-1" width="745.77" height="535.54"/><circle class="cls-3" cx="372.88" cy="267.77" r="133.4"/><path class="cls-2" d="m476.32,327.04c-.61,0-1.23-.27-1.64-.78l-25.93-32.22c-.73-.91-.59-2.23.32-2.95.91-.73,2.23-.59,2.95.32l25.93,32.22c.73.91.59,2.23-.32,2.95-.39.31-.86.46-1.32.46h.01Z"/><path class="cls-2" d="m459.06,266.9c-.55,0-1.1-.22-1.51-.65-.81-.84-.78-2.17.06-2.97,4.06-3.9,6.55-6.68,8.01-8.51-2.59,1.23-6.69,3.6-12.26,7.44-.95.66-2.26.42-2.92-.54s-.42-2.26.54-2.92c17.09-11.8,19.02-9.43,19.95-8.3,1.41,1.72,1.67,4.23-10.4,15.84-.41.39-.93.59-1.45.59v.02h-.02Z"/><path class="cls-2" d="m407.17,304.73c-1.13,0-1.83-.45-2.37-1.16-1.4-1.87-1.51-4.63,12.33-17.55.85-.79,2.18-.75,2.97.1s.75,2.18-.1,2.97c-5.69,5.31-8.59,8.55-10.06,10.46,2.06-.99,5.59-3,11.5-7.05.96-.66,2.27-.41,2.92.55s.41,2.27-.55,2.92c-9.51,6.51-14.14,8.77-16.66,8.77h.02Z"/><path class="cls-2" d="m442.2,295.59c-21.96,0-28.88-9.17-30.88-13.33-2.37-4.91-1.74-10.31,1.62-14.09,3.34-3.76,8.64-5.12,14.56-3.88.06-6.03,2.54-10.92,6.92-13.38,4.41-2.48,9.81-1.93,14.11,1.43,3.87,3.03,12.13,12.76,5.25,37.54-.81,3.14-3.57,5.4-6.85,5.58-1.66.09-3.23.13-4.74.13h.01Zm-18.83-27.55c-3.02,0-5.58.99-7.3,2.92-2.22,2.49-2.59,6.12-.97,9.47,1.39,2.87,7.75,12.14,31.61,10.83,1.45-.08,2.65-1.07,3.02-2.47,6.38-23-1.29-31.19-3.79-33.15-2.92-2.29-6.54-2.71-9.45-1.07-3.57,2.01-5.31,6.59-4.64,12.28.08.71-.21,1.43-.77,1.88s-1.32.58-2.01.34c-2-.69-3.92-1.03-5.69-1.03h0Z"/><path class="cls-2" d="m422.6,296.34c-.66,0-1.33-.32-1.73-.91-.66-.96-.42-2.26.54-2.92l4.15-2.86c4.87-3.51,9.56-7.12,13.89-10.66,5.59-4.58,9.84-8.19,13.4-11.38,1.45-1.31,3.01-2.76,4.76-4.41.84-.8,2.17-.76,2.97.08s.76,2.18-.08,2.97c-1.77,1.67-3.35,3.13-4.83,4.47-3.61,3.24-7.91,6.9-13.54,11.51-4.39,3.6-9.15,7.26-14.13,10.85l-4.19,2.88c-.36.25-.78.37-1.19.37v.02h-.02Z"/><path class="cls-2" d="m378.48,292.08c-.47,0-.94-.15-1.33-.48-9.71-7.95-8.91-15.43-8.12-18.29,1.16-4.17,4.44-7.23,8.34-7.79,2.91-.42,5.66.58,7.85,2.78,2.25-2.27,5.14-3.34,8.1-2.94,3.82.53,7.05,3.43,8.22,7.38.83,2.82,1.71,10.31-8.19,18.81-.88.76-2.2.66-2.97-.22-.76-.88-.66-2.21.22-2.97,8.03-6.91,7.5-12.4,6.9-14.44-.7-2.38-2.57-4.11-4.76-4.41s-4.24.86-5.75,3.27c-.39.61-1.06.98-1.78.98h0c-.72,0-1.39-.38-1.78-.99-1.45-2.31-3.39-3.42-5.45-3.12-2.23.32-4.2,2.23-4.9,4.76-1.21,4.35,1.24,9.42,6.74,13.91.9.73,1.03,2.06.29,2.96-.41.5-1.02.77-1.63.77v.02h0Z"/><path class="cls-2" d="m351.23,292.09c-1.04,0-2.08-.32-2.97-.97-11.94-8.63-11.69-16.1-11.03-18.91.77-3.28,3.18-5.63,6.29-6.14,1.14-.19,2.23.59,2.42,1.73s-.59,2.23-1.73,2.42c-1.43.24-2.51,1.34-2.89,2.96-.76,3.2,1.33,8.7,9.41,14.54.3.22.71.22,1.02,0,8.08-5.8,10.16-11.29,9.41-14.51-.38-1.61-1.49-2.76-2.91-3-1.14-.19-1.92-1.28-1.72-2.42s1.27-1.92,2.42-1.72c3.13.52,5.54,2.89,6.3,6.19.66,2.82.89,10.3-11.06,18.87-.89.64-1.92.96-2.97.96h.01Z"/><path class="cls-2" d="m319.62,292.03c-1.04,0-2.08-.32-2.97-.96-11.94-8.58-11.7-16.06-11.05-18.88.76-3.28,3.18-5.65,6.3-6.17,2.76-.46,5.51.59,7.73,2.86,2.21-2.27,4.96-3.32,7.7-2.86,3.12.52,5.54,2.88,6.3,6.17.66,2.81.89,10.3-11.06,18.89-.89.64-1.93.96-2.97.96h.02Zm-6.45-21.92c-.19,0-.38.02-.57.05-1.44.24-2.53,1.36-2.91,2.99-.75,3.21,1.34,8.71,9.42,14.52.31.23.71.22,1.02,0,8.08-5.81,10.17-11.31,9.41-14.53-.38-1.63-1.46-2.74-2.9-2.98-1.82-.3-3.78.9-5.23,3.22-.39.61-1.06.98-1.78.98s-1.4-.37-1.79-.98c-1.31-2.08-3.02-3.27-4.69-3.27h.02,0Z"/><path class="cls-2" d="m333.29,292.08c-1.34,0-2.18-.53-2.66-1.03-.97-1-.98-2.27-.92-2.84v-42.66c0-1.16.94-2.1,2.1-2.1s2.1.94,2.1,2.1v42.28h0c1.01,0,1.91.73,2.07,1.76.18,1.14-.59,2.23-1.74,2.41-.34.06-.66.08-.95.08h0Z"/><path class="cls-2" d="m413.57,336.57c-.47,0-.94-.16-1.33-.48-9.69-7.94-8.9-15.43-8.11-18.28,1.16-4.17,4.44-7.23,8.34-7.8,2.92-.43,5.66.57,7.86,2.77,2.24-2.26,5.12-3.33,8.07-2.92,3.82.52,7.05,3.42,8.22,7.38.83,2.82,1.71,10.32-8.19,18.83-.88.76-2.2.66-2.97-.23-.76-.88-.66-2.2.23-2.97,8.03-6.91,7.5-12.41,6.9-14.45-.71-2.38-2.57-4.11-4.76-4.41-2.18-.3-4.22.86-5.71,3.25-.39.61-1.06.98-1.78.98h0c-.72,0-1.39-.37-1.78-.98-1.45-2.3-3.39-3.41-5.47-3.11-2.23.33-4.2,2.24-4.91,4.76-1.21,4.35,1.24,9.42,6.72,13.91.9.74,1.02,2.06.29,2.96-.41.5-1.02.77-1.62.77h0v.02Z"/><path class="cls-2" d="m386.32,336.58c-1.04,0-2.08-.32-2.97-.97-11.94-8.63-11.69-16.1-11.03-18.91.77-3.28,3.18-5.63,6.29-6.14,1.13-.18,2.23.59,2.42,1.73s-.59,2.23-1.73,2.42c-1.43.24-2.51,1.34-2.89,2.96-.76,3.2,1.33,8.7,9.41,14.54.3.22.71.22,1.02,0,8.09-5.81,10.17-11.3,9.43-14.51-.38-1.63-1.47-2.75-2.92-2.99-1.14-.19-1.92-1.27-1.73-2.42.19-1.14,1.28-1.92,2.42-1.73,3.13.52,5.55,2.89,6.32,6.18.66,2.81.89,10.3-11.06,18.88-.89.64-1.92.96-2.97.96h-.02.01Z"/><path class="cls-2" d="m354.72,336.53c-1.04,0-2.08-.33-2.97-.98-11.94-8.57-11.7-16.05-11.06-18.87.76-3.28,3.18-5.65,6.29-6.17,2.76-.46,5.51.59,7.73,2.86,2.22-2.28,4.97-3.33,7.74-2.86,3.12.52,5.52,2.88,6.28,6.16.66,2.81.89,10.29-11.07,18.91-.87.65-1.91.97-2.94.97h0v-.02Zm-6.47-21.93c-.19,0-.38.02-.57.05-1.44.24-2.52,1.36-2.9,2.98-.75,3.21,1.34,8.71,9.43,14.52.3.23.69.23.97.02,8.12-5.85,10.2-11.35,9.45-14.56-.38-1.62-1.45-2.73-2.89-2.97-1.83-.3-3.8.9-5.26,3.23-.39.61-1.06.98-1.78.98s-1.39-.37-1.78-.98c-1.31-2.08-3.02-3.27-4.69-3.27h.02Z"/><path class="cls-2" d="m368.38,336.57c-1.34,0-2.18-.53-2.66-1.03-.97-1-.98-2.27-.92-2.84v-42.66c0-1.16.94-2.1,2.1-2.1s2.1.94,2.1,2.1v42.28h0c1.01,0,1.91.73,2.07,1.76.18,1.14-.59,2.23-1.74,2.41-.34.06-.66.08-.95.08h0Z"/><path class="cls-2" d="m315.5,247.59c-1.04,0-2.08-.32-2.97-.96-11.94-8.59-11.7-16.06-11.05-18.88.76-3.28,3.18-5.65,6.3-6.17,2.76-.46,5.51.59,7.73,2.86,2.2-2.27,4.95-3.32,7.7-2.86,3.11.52,5.52,2.88,6.29,6.16.66,2.81.91,10.3-11.03,18.9-.89.64-1.93.96-2.97.96h0Zm-6.45-21.92c-.19,0-.38.02-.57.05-1.44.24-2.53,1.36-2.91,2.99-.75,3.21,1.34,8.71,9.42,14.52.31.23.72.22,1.02,0,8.07-5.81,10.14-11.32,9.39-14.53-.38-1.62-1.46-2.73-2.89-2.97-1.81-.3-3.76.9-5.22,3.22-.39.61-1.06.98-1.78.98s-1.4-.37-1.79-.98c-1.31-2.08-3.02-3.27-4.69-3.27h.02Z"/><path class="cls-2" d="m347.27,247.59c-1.04,0-2.08-.32-2.97-.96-11.94-8.59-11.7-16.06-11.05-18.88.76-3.28,3.18-5.65,6.3-6.17,2.76-.46,5.51.59,7.73,2.86,2.21-2.27,4.96-3.32,7.7-2.86,3.12.52,5.54,2.88,6.3,6.17.66,2.81.89,10.3-11.06,18.89-.89.64-1.93.96-2.97.96h.02Zm-6.45-21.92c-.19,0-.38.02-.57.05-1.44.24-2.53,1.36-2.91,2.99-.75,3.21,1.34,8.71,9.42,14.52.31.23.71.22,1.02,0,8.08-5.81,10.16-11.31,9.41-14.53-.38-1.63-1.46-2.74-2.9-2.98-1.82-.3-3.78.9-5.23,3.22-.39.61-1.06.98-1.78.98s-1.4-.37-1.79-.98c-1.31-2.08-3.02-3.27-4.69-3.27h.02,0Z"/><path class="cls-2" d="m422.5,247.58c-.88,0-1.76-.26-2.51-.78-12.24-8.65-12.06-16.19-11.42-19.03.75-3.28,3.14-5.65,6.26-6.18,2.77-.47,5.54.58,7.77,2.87,3.85-4.01,7.76-2.79,9-2.25,3.65,1.6,5.85,5.98,4.9,9.76-.56,2.24-3.06,7.35-14.07,6.48-1.16-.09-2.02-1.1-1.92-2.26.09-1.16,1.1-2.02,2.26-1.92,5.42.43,9.03-.81,9.66-3.32.45-1.82-.71-4.11-2.51-4.89-2.47-1.08-4.55,1.38-5.56,2.94l-1.8,2.75-1.74-2.78c-1.47-2.34-3.44-3.55-5.28-3.24-1.43.24-2.5,1.35-2.87,2.97-.74,3.23,1.43,8.79,9.71,14.64.07.05.2.05.3-.03l3.23-2.34c.94-.68,2.25-.46,2.93.48s.46,2.25-.47,2.93l-3.28,2.37c-.8.55-1.7.81-2.59.81v.02h0Z"/><path class="cls-2" d="m379.05,247.54c-1.04,0-2.08-.32-2.97-.97-11.91-8.57-11.67-16.05-11.01-18.87.76-3.29,3.18-5.65,6.29-6.17,2.75-.46,5.49.6,7.69,2.86,2.24-2.29,5.02-3.33,7.79-2.85,3.12.54,5.51,2.92,6.27,6.19.65,2.81.86,10.29-11.09,18.85-.89.64-1.92.96-2.97.96h0Zm-6.44-21.91c-.18,0-.37.02-.55.04-1.41.24-2.52,1.38-2.89,2.98-.75,3.22,1.32,8.72,9.38,14.51.31.23.71.22,1.02,0,8.08-5.79,10.18-11.28,9.44-14.5-.37-1.63-1.45-2.75-2.88-2.99-1.82-.32-3.82.89-5.31,3.22-.39.6-1.05.97-1.77.97s-1.4-.37-1.79-.98c-1.3-2.08-3-3.26-4.65-3.26h0Z"/><path class="cls-2" d="m392.72,247.59c-1.36,0-2.2-.54-2.69-1.03-.97-1-.98-2.26-.92-2.83v-42.67c0-1.16.94-2.1,2.1-2.1s2.1.94,2.1,2.1v42.28h.03c1.02,0,1.91.73,2.07,1.76.18,1.14-.6,2.23-1.74,2.41-.34.06-.66.08-.95.08h0Z"/><path class="cls-2" d="m281.62,247.54c-1.04,0-2.08-.33-2.97-.98-11.94-8.57-11.7-16.05-11.05-18.86.76-3.29,3.18-5.65,6.31-6.17,2.76-.46,5.5.59,7.71,2.86,2.21-2.26,4.97-3.3,7.72-2.84,3.13.53,5.54,2.91,6.3,6.2.65,2.82.87,10.3-11.08,18.85-.87.65-1.9.97-2.94.97v-.02h0Zm-6.46-21.93c-.19,0-.38.02-.56.05-1.44.24-2.53,1.35-2.91,2.98-.75,3.21,1.34,8.71,9.43,14.52.3.23.69.23.97.02,8.11-5.8,10.2-11.29,9.45-14.51-.37-1.61-1.49-2.76-2.91-3.01-1.82-.3-3.78.89-5.24,3.21-.39.61-1.06.98-1.78.98h0c-.72,0-1.39-.37-1.78-.98-1.3-2.08-3.02-3.27-4.67-3.27h0Z"/><path class="cls-2" d="m295.29,247.59c-1.36,0-2.2-.54-2.69-1.03-.97-1-.98-2.26-.92-2.83v-42.67c0-1.16.94-2.1,2.1-2.1s2.1.94,2.1,2.1v42.28h.03c1.02,0,1.91.73,2.08,1.76.18,1.14-.6,2.23-1.74,2.41-.34.06-.66.08-.95.08h-.01Z"/><path class="cls-2" d="m402.29,247.59c-1.34,0-2.18-.53-2.66-1.03-.97-1-.98-2.27-.92-2.84v-42.66c0-1.16.94-2.1,2.1-2.1s2.1.94,2.1,2.1v42.28h0c1.01,0,1.9.73,2.07,1.76.18,1.14-.59,2.23-1.74,2.41-.34.06-.66.08-.95.08h0Z"/></g></svg>