<?xml version="1.0" encoding="utf-8"?>
<!-- Generator: Adobe Illustrator 26.2.1, SVG Export Plug-In . SVG Version: 6.00 Build 0)  -->
<svg version="1.1" id="Layer_1" xmlns="http://www.w3.org/2000/svg" xmlns:xlink="http://www.w3.org/1999/xlink" x="0px" y="0px"
	 viewBox="0 0 108 72" style="enable-background:new 0 0 108 72;" xml:space="preserve">
<style type="text/css">
	.st0{fill:#FFFFFE;}
</style>
<g id="thank_you_card">
	<path class="st0" d="M92.4,58c-0.2,0-0.5-0.1-0.6-0.3l-9.6-12c-0.3-0.3-0.2-0.8,0.1-1.1l0,0c0.3-0.3,0.8-0.2,1.1,0.1l9.6,12
		c0.3,0.3,0.2,0.8-0.1,1.1l0,0C92.8,57.9,92.6,58,92.4,58z"/>
	<path class="st0" d="M86.5,35.5L86.5,35.5L86.5,35.5c-0.2,0.2-0.4,0.2-0.5,0.2c-0.2,0-0.4-0.1-0.5-0.2c-0.3-0.3-0.3-0.8,0-1.1l0,0
		c1.1-1,2.1-2.1,3-3.2c-1.4,0.7-2.8,1.5-4.1,2.5c-0.2,0.1-0.4,0.2-0.5,0.4c-0.2,0.3-0.7,0.3-1,0.1c-0.1-0.3-0.2-0.6-0.4-0.8l0,0
		c0-0.1,0.1-0.3,0.2-0.4c0.1-0.1,0.2-0.1,0.3-0.2c0.2-0.2,0.5-0.3,0.7-0.5c5.7-3.8,6.3-3.1,6.7-2.6C90.8,30.1,91,31.2,86.5,35.5z"/>
	<path class="st0" d="M73,46.4L73,46.4l-0.2,0.2l0,0c-3.7,2.5-5.3,3.2-6.1,3.2c-0.3,0-0.6-0.1-0.8-0.4c-0.4-0.5-1-1.2,4-6
		c0.2-0.2,0.4-0.4,0.6-0.6c0.2-0.2,0.4-0.3,0.7-0.3c0.2,0.1,0.4,0.3,0.6,0.4c0.1,0.3,0.1,0.6-0.1,0.8c0,0.1-0.1,0.1-0.2,0.2
		c-0.2,0.1-0.3,0.3-0.4,0.4c-1.2,1.1-2.3,2.3-3.3,3.5c1.5-0.8,2.9-1.6,4.3-2.6l0.1-0.1c0.1,0,0.2-0.1,0.3-0.1c0.2,0,0.5,0.1,0.7,0.3
		l0,0C73.4,45.6,73.3,46.1,73,46.4z"/>
	<path class="st0" d="M85,36.9c0-0.7-0.1-1.3-0.2-1.9c-0.1-0.5-0.2-1-0.4-1.4c-0.2-0.5-0.4-1-0.6-1.4c-0.6-1-1.2-1.6-1.6-1.9
		c-1.5-1.2-3.5-1.5-5.2-0.5c-1.7,1.1-2.7,3-2.6,5c-1.9-0.5-4,0-5.4,1.4c-1.3,1.5-1.5,3.5-0.6,5.2c0.2,0.5,0.7,1.2,1.5,2
		c0.3,0.3,0.7,0.6,1.2,0.9c0.4,0.2,0.8,0.5,1.3,0.7h0.1c0.2,0.1,0.5,0.2,0.7,0.3c0.3,0.1,0.7,0.2,1,0.3c1.5,0.4,3.3,0.7,5.6,0.7
		c0.6,0,1.1,0,1.8-0.1c0.3,0,0.6-0.1,0.9-0.2c0.5-0.2,0.9-0.5,1.2-1c0.2-0.2,0.3-0.5,0.4-0.8C84.9,41.2,85.1,38.8,85,36.9z
		 M81.4,44.7c-2.3,0.1-4.1,0-5.6-0.3c-0.7-0.1-1.4-0.3-2-0.5c-0.8-0.3-1.5-0.6-2.1-1c-0.2-0.1-0.4-0.3-0.6-0.4
		c-0.9-0.7-1.3-1.4-1.5-1.8c-0.6-1.1-0.5-2.5,0.4-3.5c0.7-0.8,1.7-1.1,2.8-1.1l0,0c0.7,0,1.4,0.1,2.1,0.4l1.2,0.4l-0.2-1.2
		c-0.3-2.1,0.4-3.8,1.7-4.6c1.1-0.6,2.5-0.5,3.5,0.4c0.3,0.3,0.9,0.8,1.4,1.8l0,0c0.1,0.2,0.2,0.5,0.4,0.8c0.2,0.6,0.4,1.3,0.5,2.2
		c0.1,0.6,0.1,1.2,0.1,2l0,0c0,1.5-0.3,3.3-0.9,5.5C82.4,44.3,81.9,44.7,81.4,44.7z"/>
	<path class="st0" d="M72.5,46.6c-0.4,0-0.8-0.3-0.8-0.7c0-0.3,0.1-0.5,0.3-0.7l1.5-1c1.7-1.2,3.4-2.5,5.2-4s3.5-2.9,5-4.2
		c0.6-0.6,1.2-1.1,1.8-1.6c0.3-0.3,0.8-0.2,1.1,0.1c0.2,0.3,0.2,0.7,0,1c-0.6,0.5-1.2,1.1-1.8,1.7c-1.5,1.4-3.2,2.8-5,4.3
		s-3.6,2.8-5.2,4c-0.5,0.4-1,0.7-1.5,1.1C72.8,46.6,72.6,46.6,72.5,46.6z"/>
	<path class="st0" d="M56.1,45c-0.2,0-0.4-0.1-0.5-0.2c-3.6-2.9-3.3-5.7-3-6.8c0.4-1.5,1.6-2.6,3.1-2.9c1.1-0.2,2.2,0.2,2.9,1
		c0.8-0.8,1.9-1.2,3-1.1c1.4,0.3,2.6,1.3,3,2.7c0.3,1,0.6,3.8-3,7c-0.3,0.2-0.8,0.2-1.1-0.2c-0.2-0.3-0.2-0.7,0.1-1
		c3-2.6,2.8-4.6,2.6-5.4c-0.2-0.8-0.9-1.5-1.8-1.6c-0.9-0.1-1.7,0.4-2.2,1.2l-0.7,1l-0.7-1c-0.4-0.8-1.2-1.2-2-1.2
		c-0.9,0.2-1.6,0.9-1.8,1.8c-0.5,1.6,0.5,3.5,2.5,5.2c0.3,0.3,0.4,0.7,0.1,1.1l0,0C56.6,44.9,56.3,45,56.1,45z"/>
	<path class="st0" d="M46,45c-0.4,0-0.8-0.1-1.1-0.3c-4.4-3.2-4.3-6-4.1-7c0.2-1.2,1.2-2.1,2.3-2.3c0.4-0.1,0.8,0.2,0.9,0.6
		s-0.2,0.8-0.6,0.9l0,0c-0.6,0.1-1,0.5-1.1,1.1c-0.3,1.2,0.5,3.2,3.5,5.4c0.1,0.1,0.3,0.1,0.4,0c3-2.2,3.8-4.2,3.5-5.4
		c-0.1-0.6-0.5-1-1.1-1.1c-0.4-0.1-0.7-0.5-0.6-0.9c0.1-0.4,0.5-0.7,0.9-0.6c1.2,0.2,2.1,1.1,2.3,2.3c0.2,1,0.3,3.8-4.1,7
		C46.7,44.9,46.4,45,46,45z"/>
	<path class="st0" d="M39.4,37.7c-0.2-0.9-0.7-1.6-1.4-2c-0.3-0.2-0.6-0.3-0.9-0.3c-1.1-0.1-2.1,0.3-2.9,1.1
		c-0.7-0.8-1.8-1.2-2.9-1.1c-1.2,0.2-2.1,1.1-2.3,2.3c-0.2,1-0.3,3.8,4.1,7c0.3,0.2,0.7,0.3,1.1,0.3c0.4,0,0.8-0.1,1.1-0.3
		c1.2-0.9,2.1-1.7,2.7-2.5C39.7,40.1,39.6,38.4,39.4,37.7z M34.4,43.4c-0.1,0.1-0.3,0.1-0.4,0c-3-2.2-3.8-4.2-3.5-5.4
		c0.1-0.6,0.5-1,1.1-1.1h0.2c0.7,0.1,1.4,0.5,1.7,1.2l0.7,1l0.7-1c0.3-0.8,1.1-1.2,2-1.2c0.6,0.1,1,0.6,1.1,1.1
		C38.2,39.2,37.4,41.2,34.4,43.4z"/>
	<path class="st0" d="M39.3,45c-0.7,0-1.3-0.5-1.3-1.2c0-0.1,0-0.2,0-0.2V27.8c0-0.4,0.3-0.8,0.7-0.9s0.8,0.3,0.9,0.7
		c0,0.1,0,0.1,0,0.2v15.7c0.4,0,0.8,0.3,0.8,0.7S40.1,45,39.7,45H39.3z"/>
	<path class="st0" d="M69.1,61.5c-0.2,0-0.4-0.1-0.5-0.2c-3.6-2.9-3.3-5.7-3-6.8c0.4-1.5,1.6-2.6,3.1-2.9c1.1-0.2,2.2,0.2,2.9,1
		c0.8-0.8,1.9-1.2,3-1.1c1.4,0.2,2.6,1.3,3,2.7c0.3,1,0.6,3.8-3,7c-0.3,0.2-0.8,0.2-1.1-0.2c-0.2-0.3-0.2-0.7,0.1-1
		c3-2.6,2.8-4.6,2.6-5.4c-0.2-0.8-0.9-1.5-1.8-1.6s-1.8,0.4-2.2,1.2l-0.6,1l-0.7-1c-0.4-0.8-1.2-1.2-2-1.2c-0.9,0.2-1.7,0.9-1.9,1.8
		c-0.4,1.6,0.5,3.5,2.5,5.2c0.3,0.3,0.4,0.8,0.1,1.1C69.6,61.4,69.3,61.5,69.1,61.5z"/>
	<path class="st0" d="M59,61.5c-0.4,0-0.8-0.1-1.1-0.4c-4.4-3.2-4.3-6-4.1-7c0.2-1.2,1.2-2.1,2.3-2.3c0.4-0.1,0.8,0.2,0.9,0.6
		c0.1,0.4-0.2,0.8-0.6,0.9l0,0c-0.6,0.1-1,0.6-1.1,1.1c-0.3,1.2,0.5,3.2,3.5,5.4c0.1,0.1,0.3,0.1,0.4,0c3-2.2,3.8-4.2,3.5-5.4
		c-0.1-0.6-0.5-1-1.1-1.1c-0.4-0.1-0.7-0.5-0.6-0.9l0,0c0.1-0.4,0.5-0.7,0.9-0.6l0,0c1.2,0.2,2.1,1.1,2.3,2.3c0.2,1,0.3,3.8-4.1,7
		C59.8,61.4,59.4,61.5,59,61.5z"/>
	<path class="st0" d="M52.5,54.2c-0.2-0.9-0.7-1.6-1.5-2c-0.3-0.1-0.6-0.2-0.9-0.3C49,51.8,48,52.2,47.3,53
		c-0.7-0.8-1.8-1.2-2.9-1.1c-1.2,0.2-2.1,1.1-2.3,2.3c-0.2,1-0.3,3.8,4.1,7c0.3,0.2,0.7,0.4,1.1,0.4c0.4,0,0.8-0.1,1.1-0.3
		c1.2-0.8,2-1.7,2.7-2.4c1.2-1.5,1.5-2.9,1.5-3.8C52.5,54.7,52.5,54.4,52.5,54.2z M51,55.2c-0.1,1.2-1.1,2.9-3.5,4.7
		c-0.1,0.1-0.3,0.1-0.4,0c-3-2.2-3.8-4.2-3.5-5.4c0.1-0.6,0.5-1,1.1-1.1c0.1,0,0.1,0,0.2,0c0.7,0.1,1.4,0.5,1.7,1.2l0.6,1l0.7-1
		c0.4-0.8,1.2-1.2,2-1.2c0.6,0.1,1,0.6,1.1,1.1c0,0.1,0,0.2,0,0.2C51,54.9,51,55,51,55.2z"/>
	<path class="st0" d="M52.3,61.5c-0.4,0-0.7-0.1-1-0.4c-0.3-0.3-0.4-0.6-0.3-1V44.3c0-0.4,0.3-0.8,0.8-0.8s0.8,0.3,0.8,0.8V60
		c0.4,0,0.7,0.3,0.8,0.6c0.1,0.4-0.2,0.8-0.6,0.9H52.3z"/>
	<path class="st0" d="M37.9,21.2c-0.2-1.2-1.2-2.1-2.3-2.3c-1.1-0.1-2.2,0.2-2.9,1.1c-0.7-0.8-1.8-1.2-2.9-1.1
		c-1.2,0.2-2.1,1.1-2.3,2.3c-0.2,1-0.3,3.8,4.1,7c0.3,0.2,0.7,0.3,1.1,0.3s0.8-0.1,1.1-0.3C38.2,25,38.1,22.2,37.9,21.2z M32.9,26.9
		c-0.1,0.1-0.3,0.1-0.4,0c-3-2.2-3.8-4.2-3.5-5.4c0.1-0.6,0.5-1,1.1-1.1c0.1,0,0.1,0,0.2,0c0.7,0.1,1.4,0.5,1.7,1.2l0.6,1l0.6-1
		c0.4-0.8,1.2-1.2,2-1.2c0.6,0.1,1,0.5,1.1,1.1C36.7,22.7,35.9,24.7,32.9,26.9z"/>
	<path class="st0" d="M49.7,21.2c-0.2-1.2-1.2-2.1-2.3-2.3c-1.1-0.1-2.1,0.2-2.9,1.1c-0.7-0.8-1.8-1.2-2.9-1.1
		c-1.2,0.2-2.1,1.1-2.3,2.3c-0.2,1-0.3,3.8,4.1,7c0.3,0.2,0.7,0.3,1.1,0.3s0.8-0.1,1.1-0.3C50,25,49.9,22.2,49.7,21.2z M44.7,26.9
		c-0.1,0.1-0.3,0.1-0.4,0c-3-2.2-3.8-4.2-3.5-5.4c0.1-0.6,0.5-1,1.1-1.1c0.1,0,0.1,0,0.2,0c0.7,0.1,1.4,0.5,1.7,1.2l0.7,1l0.6-1
		c0.4-0.8,1.2-1.2,2-1.2c0.6,0.1,1,0.5,1.1,1.1C48.5,22.7,47.7,24.7,44.7,26.9z"/>
	<path class="st0" d="M72.4,28.5c-0.4,0-0.7-0.1-1-0.3c-4.5-3.2-4.5-6-4.2-7c0.2-1.2,1.2-2.1,2.3-2.3c1.1-0.2,2.2,0.3,2.9,1.1
		c0.8-1,2.2-1.3,3.4-0.9c1.4,0.6,2.1,2.1,1.8,3.6c-0.2,0.8-1.1,2.7-5.2,2.4c-0.4,0-0.7-0.4-0.7-0.8l0,0c0-0.4,0.4-0.7,0.8-0.7
		c2,0.2,3.4-0.3,3.6-1.2c0.1-0.8-0.3-1.5-0.9-1.8c-0.9-0.4-1.7,0.5-2.1,1.1l-0.7,1l-0.6-1c-0.4-0.8-1.1-1.2-2-1.2
		c-0.6,0.1-1,0.6-1.1,1.1c-0.3,1.2,0.5,3.3,3.6,5.5c0,0,0.1,0,0.2,0l1.2-0.9c0.3-0.2,0.8-0.2,1.1,0.2c0.2,0.3,0.2,0.8-0.2,1.1l0,0
		l-1.2,0.9C73.1,28.4,72.7,28.5,72.4,28.5z"/>
	<path class="st0" d="M61.5,21.1c-0.2-0.8-0.7-1.6-1.4-2c-0.3-0.2-0.6-0.3-0.9-0.3c-1.1-0.1-2.1,0.3-2.9,1.1
		c-0.7-0.8-1.8-1.2-2.9-1.1c-1.2,0.2-2.1,1.1-2.3,2.3c-0.2,1-0.3,3.8,4.1,7c0.3,0.2,0.7,0.3,1.1,0.3c0.4,0,0.8-0.1,1.1-0.3
		c1.2-0.8,2-1.7,2.7-2.4c1.2-1.5,1.5-2.8,1.5-3.7C61.6,21.6,61.5,21.3,61.5,21.1z M56.5,26.9c-0.1,0.1-0.3,0.1-0.4,0
		c-3-2.2-3.8-4.2-3.5-5.4c0.1-0.6,0.5-1,1.1-1.1h0.2c0.7,0.1,1.4,0.5,1.7,1.2l0.6,1l0.7-1c0.4-0.8,1.1-1.2,2-1.2
		c0.6,0.1,1,0.6,1.1,1.1C60.3,22.7,59.5,24.7,56.5,26.9z"/>
	<path class="st0" d="M61.4,28.5c-0.7,0.1-1.3-0.5-1.3-1.2c0-0.1,0-0.2,0-0.3V11.2c0-0.4,0.3-0.8,0.7-0.9c0.4,0,0.8,0.3,0.9,0.7
		c0,0.1,0,0.1,0,0.2V27c0.4,0,0.8,0.3,0.8,0.7c0,0.4-0.3,0.8-0.7,0.8l0,0H61.4z"/>
	<path class="st0" d="M25.4,21.5c0-0.1,0-0.3-0.1-0.4c-0.2-0.9-0.7-1.6-1.5-2c-0.3-0.1-0.5-0.2-0.8-0.3c-1.1-0.2-2.2,0.2-2.9,1.1
		c-0.7-0.8-1.8-1.2-2.9-1.1c-1.2,0.2-2.1,1.1-2.3,2.3c-0.2,1-0.3,3.8,4.1,7c0.3,0.2,0.7,0.3,1.1,0.3s0.8-0.1,1.1-0.3
		c1.2-0.8,2-1.6,2.6-2.4c1.1-1.3,1.5-2.5,1.5-3.3C25.4,22,25.4,21.7,25.4,21.5z M23.8,22.2c-0.1,1.2-1.1,2.9-3.5,4.7
		c-0.1,0.1-0.3,0.1-0.4,0c-3-2.2-3.8-4.2-3.5-5.4c0.1-0.6,0.5-1,1.1-1.1h0.2c0.7,0.1,1.4,0.5,1.7,1.2l0.7,1l0.6-1
		c0.4-0.8,1.2-1.2,2-1.2c0.6,0.1,1,0.6,1.1,1.1c0,0.1,0,0.1,0,0.2C23.9,21.8,23.9,22,23.8,22.2z"/>
	<path class="st0" d="M25.2,28.5c-0.4,0-0.7-0.1-1-0.4s-0.4-0.6-0.3-1V11.2c0-0.4,0.3-0.8,0.8-0.8c0.4,0,0.8,0.3,0.8,0.8V27
		c0.4,0,0.7,0.3,0.8,0.6c0.1,0.4-0.2,0.8-0.6,0.9H25.2z"/>
	<path class="st0" d="M64.9,28.5c-0.7,0.1-1.3-0.5-1.3-1.2c0-0.1,0-0.2,0-0.3V11.2c0-0.4,0.3-0.8,0.7-0.9c0.4,0,0.8,0.3,0.9,0.7
		c0,0.1,0,0.1,0,0.2V27c0.4,0,0.7,0.3,0.8,0.6c0.1,0.4-0.2,0.8-0.6,0.9H64.9z"/>
</g>
</svg>
