<?xml version="1.0" encoding="utf-8"?>
<!-- Generator: Adobe Illustrator 27.4.0, SVG Export Plug-In . SVG Version: 6.00 Build 0)  -->
<svg version="1.1" id="Layer_1" xmlns="http://www.w3.org/2000/svg" xmlns:xlink="http://www.w3.org/1999/xlink" x="0px" y="0px"
	 viewBox="0 0 108 108" style="enable-background:new 0 0 108 108;" xml:space="preserve">
<style type="text/css">
	.st0{fill:#EE7DB0;}
	.st1{fill:#FFFFFE;}
</style>
<g id="Loog">
	<path class="st0" d="M94.6,93.2l-28-34.8c0.5-0.8,1-1.7,1.2-2.6c2.5-9,3.2-16.2,2.8-21.9c1.3-1.2,2.7-2.4,4.2-3.9
		c0.2-0.1,0.3-0.2,0.5-0.3c13.4-12.9,13.1-15.6,11.5-17.5c-1-1.2-3-3.7-20,7.8c-1.6-2.8-3.5-4.6-4.8-5.7c-4.8-3.7-10.7-4.3-15.6-1.6
		s-7.6,8.1-7.7,14.8c-6.6-1.4-12.4,0.1-16.1,4.3C18.9,36,18.2,42,20.8,47.4c0.7,1.6,2.1,3.7,4.5,6C11.9,66.1,12.1,69,13.6,71
		c0.6,0.8,1.4,1.3,2.6,1.3l0,0c2.8,0,7.9-2.5,18.5-9.7c0.1-0.1,0.2-0.2,0.3-0.3l3.2-2.2c4.5,1.3,10,2.1,16.8,2.1
		c1.7,0,3.4,0,5.2-0.1c1-0.1,1.9-0.3,2.8-0.6l28,34.8c0.5,0.6,1.1,0.9,1.8,0.9c0.5,0,1-0.2,1.5-0.5C95.2,95.7,95.4,94.2,94.6,93.2z
		 M80.9,17c-1.6,2-4.2,4.9-8.4,9c-0.2,0.1-0.3,0.2-0.4,0.3c-0.7,0.7-1.4,1.4-2.1,2c-0.3-1.5-0.7-2.8-1.1-4.1
		C74.2,20.6,78.3,18.2,80.9,17z M32,58.8l-0.1,0.1c-6.4,4.4-10.3,6.6-12.6,7.7c1.5-2,4.4-5.2,9.8-10.4c1.1,0.7,2.3,1.4,3.7,2
		L32,58.8z M37.4,55C29,52,25.9,47.4,25,45.4c-1.8-3.7-1.4-7.7,1.1-10.5c1.9-2.1,4.7-3.2,8.1-3.2c2,0,4.1,0.4,6.3,1.1
		c0.8,0.3,1.6,0.1,2.2-0.4s0.9-1.3,0.9-2.1C42.8,24,44.7,19,48.7,16.7c3.2-1.8,7.2-1.4,10.5,1.2c1.7,1.3,5.6,5.3,6.7,14.1
		c-3.7,3.3-8.2,7.1-13.8,11.7C47.4,47.5,42.5,51.3,37.4,55z M63.3,54.6c-0.4,1.6-1.7,2.7-3.3,2.7c-6.8,0.4-12.3,0-16.8-0.9
		c4.1-3,8-6.1,11.7-9.1c4.4-3.6,8-6.6,11.2-9.4C65.9,42.6,65.1,48.1,63.3,54.6z"/>
</g>
<g id="CutContour">
	<path class="st1" d="M94.6,93.2l-28-34.8c0.5-0.8,1-1.7,1.2-2.6c2.5-9,3.2-16.2,2.8-21.9c1.3-1.2,2.7-2.4,4.2-3.9
		c0.2-0.1,0.3-0.2,0.5-0.3c13.4-12.9,13.1-15.6,11.5-17.5c-1-1.2-3-3.7-20,7.8c-1.6-2.8-3.5-4.6-4.8-5.7c-4.8-3.7-10.7-4.3-15.6-1.6
		s-7.6,8.1-7.7,14.8c-6.6-1.4-12.4,0.1-16.1,4.3C18.9,36,18.2,42,20.8,47.4c0.7,1.6,2.1,3.7,4.5,6C11.9,66.1,12.1,69,13.6,71
		c0.6,0.8,1.4,1.3,2.6,1.3l0,0c2.8,0,7.9-2.5,18.5-9.7c0.1-0.1,0.2-0.2,0.3-0.3l3.2-2.2c4.5,1.3,10,2.1,16.8,2.1
		c1.7,0,3.4,0,5.2-0.1c1-0.1,1.9-0.3,2.8-0.6l28,34.8c0.5,0.6,1.1,0.9,1.8,0.9c0.5,0,1-0.2,1.5-0.5C95.2,95.7,95.4,94.2,94.6,93.2z
		 M80.9,17c-1.6,2-4.2,4.9-8.4,9c-0.2,0.1-0.3,0.2-0.4,0.3c-0.7,0.7-1.4,1.4-2.1,2c-0.3-1.5-0.7-2.8-1.1-4.1
		C74.2,20.6,78.3,18.2,80.9,17z M32,58.8l-0.1,0.1c-6.4,4.4-10.3,6.6-12.6,7.7c1.5-2,4.4-5.2,9.8-10.4c1.1,0.7,2.3,1.4,3.7,2
		L32,58.8z M37.4,55C29,52,25.9,47.4,25,45.4c-1.8-3.7-1.4-7.7,1.1-10.5c1.9-2.1,4.7-3.2,8.1-3.2c2,0,4.1,0.4,6.3,1.1
		c0.8,0.3,1.6,0.1,2.2-0.4s0.9-1.3,0.9-2.1C42.8,24,44.7,19,48.7,16.7c3.2-1.8,7.2-1.4,10.5,1.2c1.7,1.3,5.6,5.3,6.7,14.1
		c-3.7,3.3-8.2,7.1-13.8,11.7C47.4,47.5,42.5,51.3,37.4,55z M63.3,54.6c-0.4,1.6-1.7,2.7-3.3,2.7c-6.8,0.4-12.3,0-16.8-0.9
		c4.1-3,8-6.1,11.7-9.1c4.4-3.6,8-6.6,11.2-9.4C65.9,42.6,65.1,48.1,63.3,54.6z"/>
</g>
</svg>
